<?xml version="1.0" encoding="utf-8"?>
<!-- Generator: Adobe Illustrator 21.0.0, SVG Export Plug-In . SVG Version: 6.00 Build 0)  -->
<svg version="1.1" id="Capa_1" xmlns="http://www.w3.org/2000/svg" xmlns:xlink="http://www.w3.org/1999/xlink" x="0px" y="0px"
	 viewBox="0 0 34 34" style="enable-background:new 0 0 34 34;" xml:space="preserve">
<style type="text/css">
	.st0{fill:#212230;}
</style>
<g>
	<path class="st0" d="M29.5,28.4L27.7,8.3c0-0.4-0.4-0.8-0.9-0.8h-3.7c-0.1-3.4-2.8-6.1-6.2-6.1s-6.1,2.7-6.2,6.1H7.2
		c-0.4,0-0.8,0.3-0.9,0.8L4.5,28.4c0,0,0,0.1,0,0.1c0,2.3,2.1,4.2,4.7,4.2h15.6C27.4,32.6,29.5,30.7,29.5,28.4
		C29.5,28.4,29.5,28.4,29.5,28.4z M17,3.1c2.4,0,4.4,1.9,4.4,4.3h-8.9C12.6,5.1,14.6,3.1,17,3.1z M24.8,30.9H9.2
		c-1.6,0-2.9-1.1-3-2.4L8,9.2h2.9v2.6c0,0.5,0.4,0.9,0.9,0.9s0.9-0.4,0.9-0.9V9.2h8.9v2.6c0,0.5,0.4,0.9,0.9,0.9
		c0.5,0,0.9-0.4,0.9-0.9V9.2H26l1.7,19.3C27.7,29.8,26.4,30.9,24.8,30.9z"/>
</g>
</svg>
